HIERARCHY
ROOT root     
{
	OFFSET 0.0000 0.0000 0.0000
	CHANNELS 6 Xposition Yposition Zposition Zrotation Yrotation Xrotation
	JOINT pelvis   
	{
		OFFSET 0.0000 0.0000 0.0000
		CHANNELS 3 Zrotation Yrotation Xrotation
		JOINT thorax   
		{
			OFFSET 0.0000 23.0750 -5.0000
			CHANNELS 3 Zrotation Yrotation Xrotation
			JOINT rclavicle
			{
				OFFSET 0.0000 28.0009 0.0000
				CHANNELS 3 Zrotation Yrotation Xrotation
				JOINT rhumerus 
				{
					OFFSET -18.5725 5.5939 0.0000
					CHANNELS 3 Zrotation Yrotation Xrotation
					JOINT rradius  
					{
						OFFSET -24.8459 0.0000 0.0000
						CHANNELS 3 Zrotation Yrotation Xrotation
						JOINT rhand    
						{
							OFFSET -24.5477 0.0000 0.0000
							CHANNELS 3 Zrotation Yrotation Xrotation
							End Site
							{
								OFFSET -8.1826 0.0000 0.0000
							}
						}
					}
				}
			}
			JOINT lclavicle
			{
				OFFSET 0.0000 28.0009 0.0000
				CHANNELS 3 Zrotation Yrotation Xrotation
				JOINT lhumerus 
				{
					OFFSET 18.5725 5.5939 0.0000
					CHANNELS 3 Zrotation Yrotation Xrotation
					JOINT lradius  
					{
						OFFSET 24.8459 0.0000 0.0000
						CHANNELS 3 Zrotation Yrotation Xrotation
						JOINT lhand    
						{
							OFFSET 24.5477 0.0000 0.0000
							CHANNELS 3 Zrotation Yrotation Xrotation
							End Site
							{
								OFFSET 8.1826 0.0000 0.0000
							}
						}
					}
				}
			}
			JOINT head     
			{
				OFFSET 0.0000 35.2030 0.0000
				CHANNELS 3 Zrotation Yrotation Xrotation
				End Site
				{
					OFFSET 0.0000 11.7343 0.0000
				}
			}
		}
		JOINT rfemur   
		{
			OFFSET -8.2817 0.0000 0.0000
			CHANNELS 3 Zrotation Yrotation Xrotation
			JOINT rtibia   
			{
				OFFSET 0.0000 -43.3627 0.0000
				CHANNELS 3 Zrotation Yrotation Xrotation
				JOINT rfoot    
				{
					OFFSET 0.0000 -38.2947 0.0000
					CHANNELS 3 Zrotation Yrotation Xrotation
					JOINT rtoes    
					{
						OFFSET 0.0000 0.0000 16.6054
						CHANNELS 3 Zrotation Yrotation Xrotation
						End Site
						{
							OFFSET 0.0000 0.0000 5.5351
						}
					}
				}
			}
		}
		JOINT lfemur   
		{
			OFFSET 8.2817 0.0000 0.0000
			CHANNELS 3 Zrotation Yrotation Xrotation
			JOINT ltibia   
			{
				OFFSET 0.0000 -43.3627 0.0000
				CHANNELS 3 Zrotation Yrotation Xrotation
				JOINT lfoot    
				{
					OFFSET 0.0000 -38.2947 0.0000
					CHANNELS 3 Zrotation Yrotation Xrotation
					JOINT ltoes    
					{
						OFFSET 0.0000 0.0000 16.6054
						CHANNELS 3 Zrotation Yrotation Xrotation
						End Site
						{
							OFFSET 0.0000 0.0000 5.5351
						}
					}
				}
			}
		}
	}
}
MOTION
Frames: 14
Frame Time: .0333333
103.36 84.258 15.921 -166.785 -83.9448 -169.453 0 -0 0 -1.8512 -15.4042 19.6623 13.6095 -15.8855 0.000129783 52.4145 -39.7244 23.027 -180 85.6762 -180 -12.9351 7.6738 -0.871201 -10.4204 17.822 6.4554e-05 -40.5859 -4.37574 1.0375 180 -62.0773 180 2.82685 2.88312 0.0711992 2.81699 10.2158 -1.2033 8.79603 -5.56191 -55.8962 -0 -0 34.574 2.45637e-07 -1.46333 1.1455 -0.0292997 4.15234e-07 -54.724 -4.00008 16.1874 -25.0333 -0 -0 46.6822 -1.06707e-06 5.54751 1.05338 0.1023 6.4444e-07 -64.1679 
102.12 84.596 15.776 -167.184 -84.3149 -168.948 0 -0 0 -1.32597 -15.7382 19.5505 13.5236 -16.0519 6.88368e-05 52.9008 -40.104 22.8255 -180 85.4088 -180 -12.9446 7.92342 -0.900288 -10.1809 18.0481 -2.49718e-06 -40.8257 -3.52054 1.45934 180 -61.5728 180 2.72347 2.73547 0.0649989 2.68967 10.0465 -1.34735 8.98217 -5.58634 -55.3354 -0 -0 31.8744 3.22899e-07 -1.84556 1.72579 -0.0555991 2.71788e-07 -55.5025 -3.72123 16.4715 -24.6521 -0 -0 46.7613 -1.95598e-06 5.19609 2.62501 0.238609 -1.50046e-06 -63.157 
100.89 84.874 15.636 -167.902 -84.7045 -168.13 0 -0 0 -0.811565 -16.0241 19.4497 13.4808 -16.1991 1.7143e-05 53.4589 -40.4594 22.5403 -180 85.1696 -180 -13.0486 8.19464 -0.938767 -9.90584 18.2387 4.28059e-05 -41.1605 -2.65448 1.95812 180 -61.1269 -180 2.60006 2.60662 0.0592023 2.58315 9.77538 -1.51805 9.08158 -5.62663 -54.7922 -0 -0 29.4253 7.68776e-08 -2.36303 2.24848 -0.0927992 -2.91223e-07 -55.9851 -3.48109 16.7374 -24.3775 -0 -0 47.0455 7.52766e-06 5.08185 3.90731 0.347201 4.24734e-06 -61.5965 
99.661 85.088 15.504 -169.064 -85.118 -166.876 0 -0 0 -0.315648 -16.2573 19.3658 13.4898 -16.3252 2.16744e-05 54.0724 -40.7928 22.1692 -180 84.9296 -180 -13.2502 8.48336 -0.987098 -9.59674 18.3988 -1.3441e-05 -41.5851 -1.79129 2.53336 180 -60.7426 180 2.45812 2.49244 0.0534994 2.50338 9.39779 -1.71501 9.10666 -5.69918 -54.2644 -0 -0 27.2597 -1.36056e-06 -2.98184 2.73692 -0.142505 -2.20784e-06 -56.1819 -3.28099 16.9772 -24.1926 -0 -0 47.5291 1.75592e-06 5.19713 4.8829 0.443602 4.46517e-06 -59.5901 
98.431 85.232 15.379 -170.819 -85.5392 -165.049 0 -0 0 0.154753 -16.4369 19.3025 13.5466 -16.4263 0.0001634 54.74 -41.1017 21.7135 -180 84.6959 -180 -13.5435 8.78429 -1.04505 -9.25926 18.5201 -2.46012e-05 -42.0862 -0.921017 3.17388 180 -60.4182 180 2.30346 2.3872 0.0479993 2.45631 8.91671 -1.93535 9.06075 -5.79917 -53.7564 -0 -0 25.4075 1.37624e-06 -3.67989 3.21386 -0.206603 -5.95693e-07 -56.0819 -3.11652 17.1881 -24.082 -0 -0 48.2091 -3.41435e-06 5.5137 5.55448 0.535297 3.99959e-06 -57.3061 
97.201 85.304 15.263 -173.407 -85.9621 -162.412 0 -0 0 0.595136 -16.5623 19.2594 13.6549 -16.5065 -8.79031e-06 55.4517 -41.3792 21.1773 -180 84.4464 -180 -13.918 9.08366 -1.11099 -8.89761 18.6097 1.93388e-05 -42.6573 -0.0624699 3.8843 180 -60.1672 180 2.14081 2.28815 0.0428008 2.44456 8.32995 -2.17664 8.95866 -5.93989 -53.2723 -0 -0 23.8912 4.09523e-06 -4.41196 3.69917 -0.285207 1.73744e-06 -55.7098 -2.9865 17.3574 -24.0364 -0 -0 49.075 4.63851e-06 5.99324 5.93783 0.622194 -3.12147e-07 -54.8704 
95.97 85.301 15.154 -177.095 -86.3881 -158.693 0 -0 0 1.00605 -16.6351 19.2316 13.8101 -16.5651 1.3475e-05 56.2022 -41.6224 20.5649 -180 84.196 -180 -14.3543 9.36556 -1.18197 -8.52021 18.6726 -1.09163e-05 -43.282 0.772196 4.66377 -180 -59.9949 180 1.97673 2.19516 0.0379014 2.46843 7.64175 -2.43619 8.81352 -6.12186 -52.8236 -0 -0 22.7303 5.04045e-06 -5.14106 4.2044 -0.377911 4.05035e-06 -55.0751 -2.88377 17.4775 -24.0479 -0 -0 50.1247 8.50393e-06 6.58692 6.05908 0.698305 -3.97289e-06 -52.4004 
94.742 85.222 15.051 177.798 -86.7882 -153.576 0 -0 0 1.39153 -16.6568 19.2113 14.0035 -16.6093 3.34487e-05 56.988 -41.8185 19.8828 -180 83.9295 -180 -14.8317 9.61422 -1.25424 -8.13654 18.7121 -5.66498e-05 -43.9468 1.57757 5.5081 180 -59.9027 180 1.81707 2.11039 0.0335015 2.52517 6.85837 -2.71152 8.63237 -6.33609 -52.4224 -0 -0 21.9393 -2.55262e-06 -5.841 4.72695 -0.483002 -7.31438e-06 -54.1656 -2.8009 17.5417 -24.1206 -0 -0 51.3537 -5.95577e-07 7.24375 5.95411 0.755388 -3.20948e-06 -50.0083 
93.517 85.067 14.953 170.873 -87.1461 -146.659 0 -0 0 1.75418 -16.6325 19.1928 14.2246 -16.639 4.3176e-06 57.8083 -41.9548 19.141 -180 83.6584 -180 -15.3284 9.81723 -1.32423 -7.76038 18.723 -5.20361e-05 -44.634 2.35978 6.40295 -180 -59.8881 180 1.66814 2.03333 0.0296009 2.60946 5.99382 -3.00179 8.42277 -6.57266 -52.0892 -0 -0 21.5379 7.97055e-07 -6.48614 5.24345 -0.595301 4.56556e-06 -52.9361 -2.73097 17.5447 -24.2538 -0 -0 52.7517 2.22345e-06 7.91784 5.66926 0.787106 -3.96303e-06 -47.8367 
92.302 84.837 14.855 161.867 -87.4637 -137.655 0 -0 0 2.11464 -16.5532 19.1606 14.4701 -16.6692 -6.46179e-05 58.6457 -42.0196 18.3508 -180 83.3763 -180 -15.8192 9.9587 -1.38697 -7.40206 18.7085 1.96821e-05 -45.3362 3.10582 7.34485 180 -59.9484 180 1.52859 1.97834 0.0263991 2.71129 5.05257 -3.30768 8.19411 -6.80934 -51.8493 -0 -0 21.5348 -8.94558e-06 -7.06922 5.71953 -0.708104 -5.30903e-07 -51.3338 -2.66063 17.4868 -24.4684 -0 -0 54.324 5.21449e-06 8.56546 5.23535 0.787392 -4.02675e-07 -45.8488 
91.1 84.534 14.756 150.771 -87.7163 -126.546 0 -0 0 2.48226 -16.4188 19.1056 14.7383 -16.7022 -6.09979e-05 59.488 -41.9906 17.5279 -180 83.1081 -180 -16.2869 10.0319 -1.43912 -7.07418 18.6646 -5.15961e-05 -46.0398 3.82344 8.315 -180 -60.0711 180 1.39752 1.95247 0.0238 2.82126 4.04936 -3.63229 7.95142 -7.02754 -51.732 -0 -0 21.9531 3.10255e-06 -7.58226 6.09381 -0.809596 -6.94941e-06 -49.2675 -2.58321 17.3713 -24.7759 -0 -0 56.0631 1.6798e-06 9.15719 4.69029 0.75519 -5.06793e-06 -44.069 
89.912 84.165 14.656 138.058 -87.8344 -113.827 0 -0 0 2.85267 -16.2457 19.0448 15.0152 -16.7264 -0.000105452 60.33 -41.8516 16.6822 -180 82.8483 -180 -16.7124 10.0451 -1.47922 -6.80652 18.5757 2.31279e-05 -46.725 4.54863 9.26776 180 -60.2277 -180 1.2776 1.94069 0.0216001 2.92644 3.01831 -3.98335 7.72267 -7.25007 -51.7545 -0 -0 22.8083 -1.40419e-06 -7.98105 6.28823 -0.879791 -2.12017e-06 -46.6902 -2.4945 17.1967 -25.1626 -0 -0 57.9404 6.3779e-06 9.6829 4.08583 0.696495 -6.97038e-06 -42.6804 
88.744 83.733 14.551 125.059 -87.8661 -100.801 0 -0 0 3.2434 -16.019 18.9681 15.3151 -16.7508 -3.11395e-05 61.1382 -41.5843 15.8317 -180 82.608 -180 -17.0868 9.99465 -1.50518 -6.60271 18.4448 2.13836e-05 -47.3948 5.27195 10.1944 180 -60.4145 -180 1.15688 1.96042 0.0198 3.0183 1.96468 -4.3654 7.51471 -7.45593 -51.948 -0 -0 24.1173 5.18376e-06 -8.27852 6.23162 -0.904907 -3.92006e-06 -43.5525 -2.38725 16.9746 -25.6501 -0 -0 59.9514 1.3957e-06 10.1316 3.43101 0.612703 -1.51834e-06 -41.4943 
87.596 83.244 14.442 113.13 -87.8076 -88.8292 0 -0 0 3.6552 -15.7405 18.891 15.644 -16.7726 -1.54034e-05 61.8886 -41.1714 14.9939 -180 82.3943 -180 -17.4086 9.88873 -1.51763 -6.4774 18.2633 -9.56308e-07 -48.0488 6.00969 11.0662 180 -60.6121 -180 1.02779 2.00676 0.0179994 3.08897 0.908905 -4.7839 7.34304 -7.65263 -52.3236 -0 -0 25.8823 -1.65811e-06 -8.46711 5.85398 -0.869904 2.3002e-06 -39.8368 -2.25839 16.7144 -26.2322 -0 -0 62.0751 3.60831e-07 10.5085 2.74609 0.509205 4.81021e-06 -40.4901 
